<svg id="visual" viewBox="0 0 540 960" width="540" height="960" xmlns="http://www.w3.org/2000/svg" xmlns:xlink="http://www.w3.org/1999/xlink" version="1.1"><rect x="0" y="0" width="540" height="960" fill="#004785"></rect><defs><linearGradient id="grad1_0" x1="0%" y1="0%" x2="100%" y2="100%"><stop offset="30%" stop-color="#1298ea" stop-opacity="1"></stop><stop offset="70%" stop-color="#1298ea" stop-opacity="1"></stop></linearGradient></defs><defs><linearGradient id="grad1_1" x1="0%" y1="0%" x2="100%" y2="100%"><stop offset="30%" stop-color="#1298ea" stop-opacity="1"></stop><stop offset="70%" stop-color="#128ad9" stop-opacity="1"></stop></linearGradient></defs><defs><linearGradient id="grad1_2" x1="0%" y1="0%" x2="100%" y2="100%"><stop offset="30%" stop-color="#117cc8" stop-opacity="1"></stop><stop offset="70%" stop-color="#128ad9" stop-opacity="1"></stop></linearGradient></defs><defs><linearGradient id="grad1_3" x1="0%" y1="0%" x2="100%" y2="100%"><stop offset="30%" stop-color="#117cc8" stop-opacity="1"></stop><stop offset="70%" stop-color="#0e6eb7" stop-opacity="1"></stop></linearGradient></defs><defs><linearGradient id="grad1_4" x1="0%" y1="0%" x2="100%" y2="100%"><stop offset="30%" stop-color="#0a61a6" stop-opacity="1"></stop><stop offset="70%" stop-color="#0e6eb7" stop-opacity="1"></stop></linearGradient></defs><defs><linearGradient id="grad1_5" x1="0%" y1="0%" x2="100%" y2="100%"><stop offset="30%" stop-color="#0a61a6" stop-opacity="1"></stop><stop offset="70%" stop-color="#055495" stop-opacity="1"></stop></linearGradient></defs><defs><linearGradient id="grad1_6" x1="0%" y1="0%" x2="100%" y2="100%"><stop offset="30%" stop-color="#004785" stop-opacity="1"></stop><stop offset="70%" stop-color="#055495" stop-opacity="1"></stop></linearGradient></defs><defs><linearGradient id="grad2_0" x1="0%" y1="0%" x2="100%" y2="100%"><stop offset="30%" stop-color="#1298ea" stop-opacity="1"></stop><stop offset="70%" stop-color="#1298ea" stop-opacity="1"></stop></linearGradient></defs><defs><linearGradient id="grad2_1" x1="0%" y1="0%" x2="100%" y2="100%"><stop offset="30%" stop-color="#128ad9" stop-opacity="1"></stop><stop offset="70%" stop-color="#1298ea" stop-opacity="1"></stop></linearGradient></defs><defs><linearGradient id="grad2_2" x1="0%" y1="0%" x2="100%" y2="100%"><stop offset="30%" stop-color="#128ad9" stop-opacity="1"></stop><stop offset="70%" stop-color="#117cc8" stop-opacity="1"></stop></linearGradient></defs><defs><linearGradient id="grad2_3" x1="0%" y1="0%" x2="100%" y2="100%"><stop offset="30%" stop-color="#0e6eb7" stop-opacity="1"></stop><stop offset="70%" stop-color="#117cc8" stop-opacity="1"></stop></linearGradient></defs><defs><linearGradient id="grad2_4" x1="0%" y1="0%" x2="100%" y2="100%"><stop offset="30%" stop-color="#0e6eb7" stop-opacity="1"></stop><stop offset="70%" stop-color="#0a61a6" stop-opacity="1"></stop></linearGradient></defs><defs><linearGradient id="grad2_5" x1="0%" y1="0%" x2="100%" y2="100%"><stop offset="30%" stop-color="#055495" stop-opacity="1"></stop><stop offset="70%" stop-color="#0a61a6" stop-opacity="1"></stop></linearGradient></defs><defs><linearGradient id="grad2_6" x1="0%" y1="0%" x2="100%" y2="100%"><stop offset="30%" stop-color="#055495" stop-opacity="1"></stop><stop offset="70%" stop-color="#004785" stop-opacity="1"></stop></linearGradient></defs><g transform="translate(540, 0)"><path d="M0 506C-91.4 496.6 -182.7 487.1 -256.5 444.3C-330.3 401.4 -386.4 325.1 -425.2 245.5C-464 165.9 -485.5 82.9 -507 0L0 0Z" fill="#024d8d"></path><path d="M0 433.7C-78.3 425.6 -156.6 417.5 -219.9 380.8C-283.1 344.1 -331.2 278.7 -364.5 210.4C-397.7 142.2 -416.2 71.1 -434.6 0L0 0Z" fill="#075a9e"></path><path d="M0 361.4C-65.3 354.7 -130.5 348 -183.2 317.3C-235.9 286.7 -276 232.2 -303.7 175.4C-331.5 118.5 -346.8 59.2 -362.1 0L0 0Z" fill="#0c67ae"></path><path d="M0 289.1C-52.2 283.8 -104.4 278.4 -146.6 253.9C-188.7 229.4 -220.8 185.8 -243 140.3C-265.2 94.8 -277.4 47.4 -289.7 0L0 0Z" fill="#0f75bf"></path><path d="M0 216.9C-39.2 212.8 -78.3 208.8 -109.9 190.4C-141.5 172 -165.6 139.3 -182.2 105.2C-198.9 71.1 -208.1 35.5 -217.3 0L0 0Z" fill="#1183d0"></path><path d="M0 144.6C-26.1 141.9 -52.2 139.2 -73.3 126.9C-94.4 114.7 -110.4 92.9 -121.5 70.1C-132.6 47.4 -138.7 23.7 -144.9 0L0 0Z" fill="#1291e1"></path><path d="M0 72.3C-13.1 70.9 -26.1 69.6 -36.6 63.5C-47.2 57.3 -55.2 46.4 -60.7 35.1C-66.3 23.7 -69.4 11.8 -72.4 0L0 0Z" fill="#1298ea"></path></g><g transform="translate(0, 960)"><path d="M0 -513C88.6 -497.8 177.2 -482.5 254.5 -440.8C331.8 -399.1 397.7 -330.9 438.2 -253C478.7 -175.1 493.9 -87.6 509 0L0 0Z" fill="#024d8d"></path><path d="M0 -439.7C76 -426.7 151.9 -413.6 218.1 -377.8C284.4 -342.1 340.9 -283.6 375.6 -216.9C410.3 -150.1 423.3 -75.1 436.3 0L0 0Z" fill="#075a9e"></path><path d="M0 -366.4C63.3 -355.5 126.6 -344.7 181.8 -314.9C237 -285.1 284.1 -236.3 313 -180.7C342 -125.1 352.8 -62.5 363.6 0L0 0Z" fill="#0c67ae"></path><path d="M0 -293.1C50.6 -284.4 101.3 -275.7 145.4 -251.9C189.6 -228 227.2 -189.1 250.4 -144.6C273.6 -100.1 282.2 -50 290.9 0L0 0Z" fill="#0f75bf"></path><path d="M0 -219.9C38 -213.3 76 -206.8 109.1 -188.9C142.2 -171 170.4 -141.8 187.8 -108.4C205.2 -75.1 211.7 -37.5 218.1 0L0 0Z" fill="#1183d0"></path><path d="M0 -146.6C25.3 -142.2 50.6 -137.9 72.7 -125.9C94.8 -114 113.6 -94.5 125.2 -72.3C136.8 -50 141.1 -25 145.4 0L0 0Z" fill="#1291e1"></path><path d="M0 -73.3C12.7 -71.1 25.3 -68.9 36.4 -63C47.4 -57 56.8 -47.3 62.6 -36.1C68.4 -25 70.6 -12.5 72.7 0L0 0Z" fill="#1298ea"></path></g></svg>