<svg id="visual" viewBox="0 0 540 960" width="540" height="960" xmlns="http://www.w3.org/2000/svg" xmlns:xlink="http://www.w3.org/1999/xlink" version="1.1"><rect x="0" y="0" width="540" height="960" fill="#004785"></rect><defs><linearGradient id="grad1_0" x1="0%" y1="0%" x2="100%" y2="100%"><stop offset="30%" stop-color="#009ff5" stop-opacity="1"></stop><stop offset="70%" stop-color="#009ff5" stop-opacity="1"></stop></linearGradient></defs><defs><linearGradient id="grad1_1" x1="0%" y1="0%" x2="100%" y2="100%"><stop offset="30%" stop-color="#009ff5" stop-opacity="1"></stop><stop offset="70%" stop-color="#0a71bc" stop-opacity="1"></stop></linearGradient></defs><defs><linearGradient id="grad1_2" x1="0%" y1="0%" x2="100%" y2="100%"><stop offset="30%" stop-color="#004785" stop-opacity="1"></stop><stop offset="70%" stop-color="#0a71bc" stop-opacity="1"></stop></linearGradient></defs><defs><linearGradient id="grad2_0" x1="0%" y1="0%" x2="100%" y2="100%"><stop offset="30%" stop-color="#009ff5" stop-opacity="1"></stop><stop offset="70%" stop-color="#009ff5" stop-opacity="1"></stop></linearGradient></defs><defs><linearGradient id="grad2_1" x1="0%" y1="0%" x2="100%" y2="100%"><stop offset="30%" stop-color="#0a71bc" stop-opacity="1"></stop><stop offset="70%" stop-color="#009ff5" stop-opacity="1"></stop></linearGradient></defs><defs><linearGradient id="grad2_2" x1="0%" y1="0%" x2="100%" y2="100%"><stop offset="30%" stop-color="#0a71bc" stop-opacity="1"></stop><stop offset="70%" stop-color="#004785" stop-opacity="1"></stop></linearGradient></defs><g transform="translate(540, 0)"><path d="M0 486C-86.9 474.4 -173.9 462.8 -243 420.9C-312.1 379 -363.4 306.7 -401 231.5C-438.5 156.3 -462.3 78.1 -486 0L0 0Z" fill="#065ca0"></path><path d="M0 324C-58 316.3 -115.9 308.5 -162 280.6C-208.1 252.6 -242.3 204.5 -267.3 154.3C-292.3 104.2 -308.2 52.1 -324 0L0 0Z" fill="#0988d8"></path><path d="M0 162C-29 158.1 -58 154.3 -81 140.3C-104 126.3 -121.1 102.2 -133.7 77.2C-146.2 52.1 -154.1 26 -162 0L0 0Z" fill="#009ff5"></path></g><g transform="translate(0, 960)"><path d="M0 -486C79.5 -464.6 159 -443.1 234 -405.3C309 -367.5 379.6 -313.3 420.9 -243C462.1 -172.7 474.1 -86.4 486 0L0 0Z" fill="#065ca0"></path><path d="M0 -324C53 -309.7 106 -295.4 156 -270.2C206 -245 253.1 -208.9 280.6 -162C308.1 -115.1 316 -57.6 324 0L0 0Z" fill="#0988d8"></path><path d="M0 -162C26.5 -154.9 53 -147.7 78 -135.1C103 -122.5 126.5 -104.4 140.3 -81C154 -57.6 158 -28.8 162 0L0 0Z" fill="#009ff5"></path></g></svg>