<svg id="visual" viewBox="0 0 540 960" width="540" height="960" xmlns="http://www.w3.org/2000/svg" xmlns:xlink="http://www.w3.org/1999/xlink" version="1.1"><rect x="0" y="0" width="540" height="960" fill="#009FF5"></rect><defs><linearGradient id="grad1_0" x1="0%" y1="0%" x2="100%" y2="100%"><stop offset="30%" stop-color="#004785" stop-opacity="1"></stop><stop offset="70%" stop-color="#004785" stop-opacity="1"></stop></linearGradient></defs><defs><linearGradient id="grad1_1" x1="0%" y1="0%" x2="100%" y2="100%"><stop offset="30%" stop-color="#004785" stop-opacity="1"></stop><stop offset="70%" stop-color="#065ca0" stop-opacity="1"></stop></linearGradient></defs><defs><linearGradient id="grad1_2" x1="0%" y1="0%" x2="100%" y2="100%"><stop offset="30%" stop-color="#0a71bc" stop-opacity="1"></stop><stop offset="70%" stop-color="#065ca0" stop-opacity="1"></stop></linearGradient></defs><defs><linearGradient id="grad1_3" x1="0%" y1="0%" x2="100%" y2="100%"><stop offset="30%" stop-color="#0a71bc" stop-opacity="1"></stop><stop offset="70%" stop-color="#0988d8" stop-opacity="1"></stop></linearGradient></defs><defs><linearGradient id="grad1_4" x1="0%" y1="0%" x2="100%" y2="100%"><stop offset="30%" stop-color="#009ff5" stop-opacity="1"></stop><stop offset="70%" stop-color="#0988d8" stop-opacity="1"></stop></linearGradient></defs><defs><linearGradient id="grad2_0" x1="0%" y1="0%" x2="100%" y2="100%"><stop offset="30%" stop-color="#004785" stop-opacity="1"></stop><stop offset="70%" stop-color="#004785" stop-opacity="1"></stop></linearGradient></defs><defs><linearGradient id="grad2_1" x1="0%" y1="0%" x2="100%" y2="100%"><stop offset="30%" stop-color="#065ca0" stop-opacity="1"></stop><stop offset="70%" stop-color="#004785" stop-opacity="1"></stop></linearGradient></defs><defs><linearGradient id="grad2_2" x1="0%" y1="0%" x2="100%" y2="100%"><stop offset="30%" stop-color="#065ca0" stop-opacity="1"></stop><stop offset="70%" stop-color="#0a71bc" stop-opacity="1"></stop></linearGradient></defs><defs><linearGradient id="grad2_3" x1="0%" y1="0%" x2="100%" y2="100%"><stop offset="30%" stop-color="#0988d8" stop-opacity="1"></stop><stop offset="70%" stop-color="#0a71bc" stop-opacity="1"></stop></linearGradient></defs><defs><linearGradient id="grad2_4" x1="0%" y1="0%" x2="100%" y2="100%"><stop offset="30%" stop-color="#0988d8" stop-opacity="1"></stop><stop offset="70%" stop-color="#009ff5" stop-opacity="1"></stop></linearGradient></defs><g transform="translate(540, 0)"><path d="M0 513C-65.9 502.7 -131.8 492.4 -194.4 469.3C-257 446.3 -316.3 410.5 -362.7 362.7C-409.2 315 -442.7 255.3 -465.6 192.9C-488.5 130.4 -500.8 65.2 -513 0L0 0Z" fill="#0693e7"></path><path d="M0 410.4C-52.7 402.2 -105.4 393.9 -155.5 375.5C-205.6 357 -253.1 328.4 -290.2 290.2C-327.3 252 -354.2 204.3 -372.5 154.3C-390.8 104.3 -400.6 52.2 -410.4 0L0 0Z" fill="#0a7cca"></path><path d="M0 307.8C-39.5 301.6 -79.1 295.4 -116.6 281.6C-154.2 267.8 -189.8 246.3 -217.6 217.6C-245.5 189 -265.6 153.2 -279.4 115.7C-293.1 78.3 -300.5 39.1 -307.8 0L0 0Z" fill="#0966ae"></path><path d="M0 205.2C-26.4 201.1 -52.7 197 -77.8 187.7C-102.8 178.5 -126.5 164.2 -145.1 145.1C-163.7 126 -177.1 102.1 -186.3 77.1C-195.4 52.2 -200.3 26.1 -205.2 0L0 0Z" fill="#035192"></path><path d="M0 102.6C-13.2 100.5 -26.4 98.5 -38.9 93.9C-51.4 89.3 -63.3 82.1 -72.5 72.5C-81.8 63 -88.5 51.1 -93.1 38.6C-97.7 26.1 -100.2 13 -102.6 0L0 0Z" fill="#004785"></path></g><g transform="translate(0, 960)"><path d="M0 -513C61.6 -492.3 123.3 -471.6 186.4 -449.9C249.5 -428.2 314.1 -405.5 362.7 -362.7C411.4 -320 444.2 -257.1 466.6 -193.3C488.9 -129.4 501 -64.7 513 0L0 0Z" fill="#0693e7"></path><path d="M0 -410.4C49.3 -393.8 98.6 -377.3 149.1 -359.9C199.6 -342.6 251.3 -324.4 290.2 -290.2C329.1 -256 355.3 -205.6 373.2 -154.6C391.2 -103.6 400.8 -51.8 410.4 0L0 0Z" fill="#0a7cca"></path><path d="M0 -307.8C37 -295.4 74 -283 111.8 -270C149.7 -256.9 188.4 -243.3 217.6 -217.6C246.9 -192 266.5 -154.2 279.9 -116C293.4 -77.7 300.6 -38.8 307.8 0L0 0Z" fill="#0966ae"></path><path d="M0 -205.2C24.7 -196.9 49.3 -188.6 74.5 -180C99.8 -171.3 125.6 -162.2 145.1 -145.1C164.6 -128 177.7 -102.8 186.6 -77.3C195.6 -51.8 200.4 -25.9 205.2 0L0 0Z" fill="#035192"></path><path d="M0 -102.6C12.3 -98.5 24.7 -94.3 37.3 -90C49.9 -85.6 62.8 -81.1 72.5 -72.5C82.3 -64 88.8 -51.4 93.3 -38.7C97.8 -25.9 100.2 -12.9 102.6 0L0 0Z" fill="#004785"></path></g></svg>